<svg width="174" height="66" viewBox="0 0 174 66" fill="none" xmlns="http://www.w3.org/2000/svg">
<path d="M14.928 50C13.008 50 11.184 49.584 9.456 48.752C7.76 47.888 6.368 46.672 5.28 45.104C4.224 43.504 3.696 41.632 3.696 39.488C3.696 37.376 4.144 35.28 5.04 33.2C5.936 31.088 7.104 29.056 8.544 27.104C10.016 25.12 11.6 23.28 13.296 21.584C15.024 19.888 16.704 18.416 18.336 17.168C20 15.888 21.472 14.896 22.752 14.192C24.064 13.456 25.024 13.088 25.632 13.088C26.272 13.088 26.928 13.36 27.6 13.904C28.272 14.448 28.624 15.232 28.656 16.256C28.656 16.704 28.528 17.216 28.272 17.792C28.016 18.368 27.424 18.944 26.496 19.52C25.696 20 24.624 20.704 23.28 21.632C21.968 22.56 20.576 23.648 19.104 24.896C17.632 26.144 16.224 27.536 14.88 29.072C13.568 30.576 12.496 32.176 11.664 33.872C10.832 35.568 10.416 37.312 10.416 39.104C10.416 40.576 10.848 41.696 11.712 42.464C12.576 43.2 13.744 43.568 15.216 43.568C16.24 43.568 17.456 43.28 18.864 42.704C20.304 42.128 21.776 41.392 23.28 40.496C24.784 39.568 26.16 38.576 27.408 37.52C28.688 36.464 29.68 35.456 30.384 34.496C29.168 34.752 27.824 35.04 26.352 35.36C24.912 35.648 23.568 35.904 22.32 36.128C21.072 36.32 20.176 36.416 19.632 36.416C18.672 36.416 17.872 36.224 17.232 35.84C16.592 35.456 16.112 35.008 15.792 34.496C15.472 33.952 15.312 33.44 15.312 32.96C15.312 32.416 15.52 31.856 15.936 31.28C16.352 30.704 17.072 30.336 18.096 30.176C18.768 30.08 19.68 29.936 20.832 29.744C21.984 29.52 23.184 29.312 24.432 29.12C25.712 28.896 26.88 28.704 27.936 28.544C29.024 28.384 29.84 28.304 30.384 28.304C34.416 28.304 36.432 30.56 36.432 35.072C36.432 35.936 35.984 37.008 35.088 38.288C34.192 39.536 32.976 40.848 31.44 42.224C29.936 43.568 28.24 44.832 26.352 46.016C24.464 47.2 22.528 48.16 20.544 48.896C18.592 49.632 16.72 50 14.928 50Z" fill="black"/>
<path d="M46.68 54.368C45.304 54.368 44.616 53.44 44.616 51.584C44.616 50.944 44.792 49.504 45.144 47.264C45.496 44.992 45.944 42.32 46.488 39.248C44.088 39.408 41.912 39.552 39.96 39.68C38.04 39.776 36.6 39.824 35.64 39.824C34.648 39.824 33.976 39.648 33.624 39.296C33.304 38.944 33.144 38.464 33.144 37.856C33.144 37.408 33.4 37.008 33.912 36.656C34.424 36.304 35.112 36.032 35.976 35.84C37.416 35.52 39.112 35.216 41.064 34.928C43.048 34.64 45.16 34.368 47.4 34.112C47.848 31.68 48.312 29.264 48.792 26.864C46.776 27.088 44.936 27.28 43.272 27.44C41.608 27.568 40.328 27.632 39.432 27.632C38.024 27.632 37.128 27.44 36.744 27.056C36.392 26.64 36.216 26.208 36.216 25.76C36.216 25.248 37.432 24.592 39.864 23.792C42.328 22.992 45.656 22.288 49.848 21.68C50.264 19.696 50.664 17.84 51.048 16.112C51.432 14.352 51.784 12.784 52.104 11.408C52.264 10.8 52.52 10.288 52.872 9.872C53.256 9.456 53.656 9.248 54.072 9.248C54.616 9.248 55.08 9.568 55.464 10.208C55.848 10.848 56.04 11.472 56.04 12.08C56.04 12.304 55.88 13.248 55.56 14.912C55.272 16.544 54.888 18.592 54.408 21.056C55.464 20.928 56.552 20.816 57.672 20.72C58.824 20.624 59.992 20.544 61.176 20.48C61.56 18.72 61.912 17.136 62.232 15.728C62.584 14.32 62.872 13.152 63.096 12.224C63.224 11.744 63.432 11.328 63.72 10.976C64.04 10.624 64.408 10.448 64.824 10.448C65.336 10.448 65.8 10.752 66.216 11.36C66.664 11.936 66.888 12.48 66.888 12.992C66.888 13.44 66.776 14.304 66.552 15.584C66.36 16.832 66.104 18.384 65.784 20.24C67.512 20.176 69.256 20.144 71.016 20.144C72.52 20.144 73.608 20.416 74.28 20.96C74.984 21.472 75.336 21.936 75.336 22.352C75.336 22.768 75.176 23.136 74.856 23.456C74.536 23.744 74.04 23.904 73.368 23.936C72.888 23.936 71.88 24.032 70.344 24.224C68.808 24.384 66.984 24.608 64.872 24.896C64.36 27.424 63.8 30.096 63.192 32.912C64.376 32.88 65.448 32.864 66.408 32.864C68.232 32.864 69.608 32.976 70.536 33.2C71.464 33.392 72.088 33.648 72.408 33.968C72.76 34.288 72.936 34.64 72.936 35.024C72.936 35.344 72.792 35.664 72.504 35.984C72.216 36.272 71.72 36.496 71.016 36.656C70.376 36.816 69.256 37.008 67.656 37.232C66.088 37.424 64.248 37.632 62.136 37.856C61.464 40.864 60.808 43.76 60.168 46.544C59.528 49.296 58.936 51.664 58.392 53.648C58.104 54.8 57.64 55.376 57 55.376C56.392 55.376 55.944 55.152 55.656 54.704C55.368 54.256 55.224 53.744 55.224 53.168C55.224 52.464 55.32 51.376 55.512 49.904C55.736 48.432 56.008 46.704 56.328 44.72C56.68 42.736 57.08 40.608 57.528 38.336C55.384 38.528 53.192 38.704 50.952 38.864C50.504 41.296 50.072 43.632 49.656 45.872C49.24 48.08 48.888 50.08 48.6 51.872C48.472 52.672 48.232 53.28 47.88 53.696C47.528 54.144 47.128 54.368 46.68 54.368ZM58.536 33.152C58.792 31.872 59.048 30.592 59.304 29.312C59.592 28 59.864 26.72 60.12 25.472C59.032 25.632 57.912 25.776 56.76 25.904C55.64 26.032 54.52 26.176 53.4 26.336C53.176 27.488 52.936 28.688 52.68 29.936C52.456 31.152 52.216 32.4 51.96 33.68C54.232 33.456 56.424 33.28 58.536 33.152ZM100.784 36.272C100.784 37.552 100.32 38.864 99.3923 40.208C98.4963 41.552 97.3123 42.88 95.8403 44.192C94.3683 45.504 92.7683 46.736 91.0403 47.888C89.3443 49.04 87.6643 50.048 86.0003 50.912C84.3363 51.808 82.8643 52.496 81.5843 52.976C80.3043 53.488 79.3923 53.744 78.8483 53.744C77.9203 53.744 77.2163 53.536 76.7363 53.12C76.2883 52.736 76.0643 52.384 76.0643 52.064C76.0643 51.712 76.1443 51.36 76.3043 51.008C76.4963 50.688 76.9283 50.384 77.6003 50.096C79.4563 49.264 81.3283 48.336 83.2163 47.312C85.1043 46.256 86.8803 45.184 88.5443 44.096C90.2403 43.008 91.7443 41.92 93.0563 40.832C94.3683 39.744 95.4083 38.736 96.1763 37.808C96.9443 36.848 97.3282 36.016 97.3282 35.312C97.3282 34.256 96.7843 33.472 95.6963 32.96C94.6403 32.416 92.8803 32.144 90.4163 32.144C88.9763 32.144 87.7763 32.208 86.8163 32.336C85.8563 32.464 85.0243 32.592 84.3203 32.72C83.6483 32.816 83.0243 32.864 82.4483 32.864C81.4243 32.864 80.9123 32.336 80.9123 31.28C80.9123 30.8 81.0723 30.304 81.3923 29.792C81.7123 29.28 82.2243 28.912 82.9283 28.688C86.4483 27.568 89.2483 26.224 91.3283 24.656C93.4083 23.056 94.4483 21.28 94.4483 19.328C94.4483 18.144 93.4243 17.552 91.3763 17.552C90.4163 17.552 89.3283 17.648 88.1123 17.84C86.8963 18.032 85.7123 18.272 84.5603 18.56C83.4403 18.816 82.4803 19.04 81.6803 19.232C80.8803 19.424 80.3843 19.52 80.1923 19.52C79.8723 19.52 79.6323 19.424 79.4723 19.232C79.3123 19.008 79.2323 18.784 79.2323 18.56C79.2323 18.272 79.4723 17.84 79.9523 17.264C80.4323 16.688 81.1203 16.096 82.0163 15.488C82.9123 14.848 83.9843 14.32 85.2323 13.904C86.5123 13.456 87.9363 13.232 89.5043 13.232C91.1043 13.232 92.5123 13.552 93.7283 14.192C94.9443 14.8 95.9043 15.648 96.6083 16.736C97.3123 17.824 97.6643 19.072 97.6643 20.48C97.6643 21.888 97.2163 23.28 96.3203 24.656C95.4243 26.032 94.3363 27.184 93.0563 28.112C94.5923 28.368 95.9363 28.896 97.0883 29.696C98.2723 30.464 99.1843 31.424 99.8243 32.576C100.464 33.696 100.784 34.928 100.784 36.272Z" fill="black"/>
</svg>
